<?xml version="1.0" encoding="UTF-8"?>
<!DOCTYPE svg PUBLIC "-//W3C//DTD SVG 1.1//EN" "http://www.w3.org/Graphics/SVG/1.1/DTD/svg11.dtd">
<!-- Creator: CorelDRAW X7 -->
<svg xmlns="http://www.w3.org/2000/svg" xml:space="preserve" width="170.724mm" height="92.1988mm" version="1.1" style="shape-rendering:geometricPrecision; text-rendering:geometricPrecision; image-rendering:optimizeQuality; fill-rule:evenodd; clip-rule:evenodd"
viewBox="0 0 16364 8837"
 xmlns:xlink="http://www.w3.org/1999/xlink">
 <defs>
  <style type="text/css">
   <![CDATA[
    .fil1 {fill:#009846}
    .fil0 {fill:#FEFEFE;fill-rule:nonzero}
   ]]>
  </style>
 </defs>
 <g id="Layer_x0020_1">
  <metadata id="CorelCorpID_0Corel-Layer"/>
  <path class="fil0" d="M3649 6542c-353,0 -642,-94 -869,-282 -227,-188 -389,-464 -485,-826l731 -282c58,227 135,401 232,521 96,121 222,181 376,181 116,0 203,-29 261,-86 58,-58 87,-138 87,-239 0,-116 -35,-221 -105,-315 -70,-95 -190,-212 -359,-352l-506 -427c-184,-159 -332,-322 -446,-489 -113,-166 -170,-375 -170,-626 0,-227 52,-422 156,-583 103,-162 246,-288 427,-377 181,-89 383,-134 605,-134 347,0 625,100 833,301 207,200 342,462 405,785l-666 276c-24,-116 -59,-224 -105,-323 -46,-99 -105,-180 -178,-242 -72,-63 -159,-94 -260,-94 -102,0 -183,31 -243,94 -60,62 -91,142 -91,239 0,82 35,166 106,253 70,87 170,186 300,297l514 464c111,96 218,200 319,311 101,111 186,235 253,373 68,138 102,296 102,474 0,242 -55,445 -163,609 -109,164 -256,288 -442,373 -186,84 -392,126 -619,126z"/>
  <path id="1" class="fil0" d="M5409 7853l0 -5562 985 0 0 319c120,-116 253,-209 398,-279 145,-70 297,-105 456,-105 189,0 343,44 464,130 120,87 215,202 282,344 68,143 115,295 141,457 27,161 40,317 40,467l0 1419c0,276 -32,527 -98,753 -65,227 -169,408 -311,544 -142,135 -332,202 -568,202 -150,0 -291,-36 -424,-108 -133,-73 -260,-164 -380,-275l0 1694 -985 0zm1419 -1999c106,0 185,-35 236,-105 50,-70 84,-164 101,-282 17,-118 25,-247 25,-387l0 -1500c0,-130 -9,-247 -29,-351 -19,-104 -55,-187 -108,-250 -53,-62 -131,-94 -232,-94 -77,0 -153,18 -228,54 -75,37 -141,79 -199,127l0 2644c62,43 130,78 202,105 73,26 150,39 232,39z"/>
  <path id="2" class="fil0" d="M9551 6542c-188,0 -351,-49 -489,-148 -137,-99 -242,-225 -315,-377 -72,-152 -108,-310 -108,-474 0,-261 48,-480 145,-659 96,-179 225,-328 387,-449 162,-121 343,-226 543,-315 201,-89 407,-170 619,-243l0 -362c0,-120 -8,-222 -25,-304 -17,-82 -49,-145 -98,-188 -48,-44 -118,-65 -210,-65 -87,0 -155,19 -206,57 -51,39 -87,93 -109,163 -21,70 -32,151 -32,243l-15 254 -941 -37c19,-482 140,-839 362,-1068 222,-229 562,-344 1021,-344 420,0 727,116 920,348 193,231 289,545 289,941l0 1934c0,154 4,294 11,420 7,125 17,239 29,340 12,102 23,191 33,268l-891 0c-14,-96 -31,-206 -51,-329 -19,-123 -33,-214 -43,-272 -48,169 -140,322 -275,460 -136,138 -319,206 -551,206zm362 -731c63,0 121,-16 174,-47 53,-31 102,-69 145,-112 43,-44 77,-82 101,-116l0 -1166c-111,63 -213,125 -307,188 -95,63 -175,132 -243,206 -68,75 -121,156 -159,243 -39,87 -58,188 -58,304 0,155 30,277 90,366 61,89 146,134 257,134z"/>
  <path id="3" class="fil0" d="M12028 6477l0 -4186 985 0 0 645c145,-246 290,-424 435,-532 144,-109 304,-163 478,-163 29,0 54,1 76,3 21,3 47,6 76,11l0 1021c-58,-24 -122,-44 -192,-61 -70,-17 -142,-26 -214,-26 -130,0 -249,32 -355,94 -106,63 -207,167 -304,312l0 2882 -985 0z"/>
  <path class="fil1" d="M13014 6476l1816 0c878,0 1534,-690 1534,-1533l0 -3409c0,-844 -652,-1534 -1534,-1534l-13296 0c-887,0 -1534,690 -1534,1534l0 5769c0,844 660,1534 1534,1534l-22 0 4882 0 0 -985 -4882 0c-290,0 -527,-237 -527,-527l0 -5813c0,-290 237,-527 527,-527l13339 0c290,0 528,237 528,527l0 3452c0,290 -238,527 -528,527l-1837 0 0 985z"/>
 </g>
</svg>
