<?xml version="1.0" encoding="UTF-8"?>
<!DOCTYPE svg PUBLIC "-//W3C//DTD SVG 1.1//EN" "http://www.w3.org/Graphics/SVG/1.1/DTD/svg11.dtd">
<!-- Creator: CorelDRAW X7 -->
<svg xmlns="http://www.w3.org/2000/svg" xml:space="preserve" width="170.724mm" height="108.237mm" version="1.1" style="shape-rendering:geometricPrecision; text-rendering:geometricPrecision; image-rendering:optimizeQuality; fill-rule:evenodd; clip-rule:evenodd"
viewBox="0 0 16364 10374"
 xmlns:xlink="http://www.w3.org/1999/xlink">
 <defs>
  <style type="text/css">
   <![CDATA[
    .fil2 {fill:#009846}
    .fil1 {fill:#5B5B5B;fill-rule:nonzero}
    .fil0 {fill:#009846;fill-rule:nonzero}
   ]]>
  </style>
 </defs>
 <g id="Layer_x0020_1">
  <metadata id="CorelCorpID_0Corel-Layer"/>
  <path class="fil0" d="M1531 10374c-73,0 -138,-16 -195,-47 -57,-32 -102,-76 -134,-131 -33,-56 -49,-119 -49,-191 0,-72 16,-135 49,-191 32,-55 77,-98 134,-130 57,-31 122,-47 195,-47 65,0 123,13 174,39 51,26 90,64 118,115l-98 64c-24,-35 -52,-61 -86,-78 -34,-17 -70,-25 -109,-25 -47,0 -89,10 -126,31 -37,21 -66,50 -88,88 -21,38 -32,82 -32,134 0,52 11,97 32,135 22,38 51,68 88,89 37,20 79,31 126,31 39,0 75,-9 109,-25 34,-17 62,-43 86,-79l98 63c-28,50 -67,88 -118,115 -51,27 -109,40 -174,40zm1102 0c-72,-1 -136,-17 -192,-48 -55,-31 -99,-75 -131,-130 -32,-56 -48,-119 -48,-191 -1,-72 15,-135 48,-190 33,-55 77,-98 132,-130 56,-32 119,-48 190,-48 72,0 136,16 193,48 56,32 100,75 132,130 32,55 48,118 48,190 0,72 -16,135 -48,191 -32,55 -76,99 -133,130 -57,31 -120,47 -191,48zm0 -114c46,0 88,-11 124,-31 37,-21 65,-51 86,-90 21,-38 32,-83 32,-134 0,-52 -11,-96 -32,-134 -21,-38 -49,-67 -86,-88 -36,-21 -78,-32 -124,-33 -45,1 -87,12 -123,33 -36,21 -64,50 -86,88 -22,38 -33,82 -33,134 0,51 11,96 33,134 22,39 50,69 86,90 35,20 77,31 123,31zm898 106l0 -1010 130 0 0 1010 -130 0zm724 0l0 -1010 130 0 0 1010 -130 0zm1043 8c-77,0 -144,-16 -203,-47 -58,-32 -103,-76 -135,-131 -32,-56 -48,-119 -48,-191 0,-72 16,-135 47,-191 31,-55 74,-98 128,-130 55,-31 116,-47 185,-47 69,0 131,16 184,47 53,31 95,74 125,130 30,56 45,121 45,195 0,6 0,12 -1,19 0,8 -1,14 -2,21l-609 0 0 -94 542 0 -53 32c1,-46 -9,-87 -28,-123 -20,-37 -47,-65 -82,-86 -35,-20 -75,-30 -121,-30 -45,0 -85,10 -120,30 -36,21 -63,49 -83,86 -20,37 -30,79 -30,126l0 22c0,48 11,91 33,129 23,37 53,67 93,88 40,20 85,31 137,31 42,0 80,-7 115,-22 35,-14 65,-36 91,-65l72 84c-32,38 -73,67 -121,87 -48,20 -102,30 -161,30zm1166 0c-72,0 -138,-16 -195,-47 -57,-32 -102,-76 -134,-131 -33,-56 -49,-119 -49,-191 0,-72 16,-135 49,-191 32,-55 77,-98 134,-130 57,-31 123,-47 195,-47 65,0 123,13 174,39 51,26 91,64 119,115l-99 64c-24,-35 -52,-61 -86,-78 -34,-17 -70,-25 -109,-25 -47,0 -89,10 -126,31 -37,21 -66,50 -87,88 -22,38 -33,82 -33,134 0,52 11,97 33,135 21,38 50,68 87,89 37,20 79,31 126,31 39,0 75,-9 109,-25 34,-17 62,-43 86,-79l99 63c-28,50 -68,88 -119,115 -51,27 -109,40 -174,40zm1062 0c-72,0 -128,-19 -168,-58 -39,-39 -59,-95 -59,-168l0 -662 130 0 0 657c0,39 9,69 29,90 19,21 47,31 83,31 40,0 74,-11 101,-34l41 94c-20,17 -44,30 -71,38 -28,8 -56,12 -86,12zm-349 -622l0 -108 457 0 0 108 -457 0zm1010 614l-1 -722 130 2 0 720 -129 0zm64 -861c-25,0 -46,-8 -63,-24 -17,-17 -25,-37 -25,-60 0,-25 8,-45 25,-61 17,-17 38,-25 63,-25 25,0 46,8 63,24 16,16 25,36 25,59 0,25 -8,45 -25,62 -16,17 -37,25 -63,25zm846 861l-313 -722 135 0 279 654 -65 0 284 -654 127 0 -314 722 -133 0zm1213 8c-76,0 -144,-16 -202,-47 -58,-32 -103,-76 -135,-131 -32,-56 -48,-119 -48,-191 0,-72 16,-135 47,-191 31,-55 74,-98 128,-130 55,-31 116,-47 185,-47 69,0 130,16 184,47 53,31 94,74 125,130 30,56 45,121 45,195 0,6 0,12 -1,19 0,8 -1,14 -2,21l-609 0 0 -94 542 0 -53 32c1,-46 -9,-87 -28,-123 -20,-37 -48,-65 -82,-86 -35,-20 -75,-30 -121,-30 -45,0 -85,10 -121,30 -35,21 -62,49 -82,86 -20,37 -30,79 -30,126l0 22c0,48 11,91 33,129 22,37 53,67 93,88 40,20 85,31 136,31 43,0 81,-7 116,-22 35,-14 65,-36 91,-65l72 84c-32,38 -73,67 -121,87 -48,20 -102,30 -162,30zm1250 0c-25,0 -47,-9 -65,-26 -18,-18 -27,-40 -27,-68 0,-27 9,-49 27,-66 18,-18 40,-26 65,-26 24,0 45,8 63,26 17,17 26,39 26,66 0,28 -9,50 -26,68 -18,17 -39,26 -63,26zm1006 -8l-1 -953 133 0 2 835 512 1 0 117 -646 0zm1149 0l-1 -953 134 0 1 835 513 1 0 117 -647 0zm1148 0l0 -953 369 0c83,0 154,13 213,39 58,27 103,65 135,115 31,50 47,109 47,178 0,69 -16,128 -47,178 -32,49 -77,87 -135,114 -59,27 -130,40 -213,40l-294 0 61 -64 0 353 -136 0zm136 -339l-61 -68 290 0c87,0 152,-19 197,-56 45,-37 67,-90 67,-158 0,-68 -22,-121 -67,-158 -45,-37 -110,-56 -197,-56l-290 0 61 -68 0 564z"/>
  <path class="fil1" d="M3649 6542c-353,0 -642,-94 -869,-282 -227,-188 -389,-464 -485,-826l731 -282c58,227 135,401 232,521 96,121 222,181 376,181 116,0 203,-29 261,-86 58,-58 87,-138 87,-239 0,-116 -35,-221 -105,-315 -70,-95 -190,-212 -359,-352l-506 -427c-184,-159 -332,-322 -446,-489 -113,-166 -170,-375 -170,-626 0,-227 52,-422 156,-583 103,-162 246,-288 427,-377 181,-89 383,-134 605,-134 347,0 625,100 833,301 207,200 342,462 405,785l-666 276c-24,-116 -59,-224 -105,-323 -46,-99 -105,-180 -178,-242 -72,-63 -159,-94 -260,-94 -102,0 -183,31 -243,94 -60,62 -91,142 -91,239 0,82 35,166 106,253 70,87 170,186 300,297l514 464c111,96 218,200 319,311 101,111 186,235 253,373 68,138 102,296 102,474 0,242 -55,445 -163,609 -109,164 -256,288 -442,373 -186,84 -392,126 -619,126zm1760 1311l0 -5562 985 0 0 319c120,-116 253,-209 398,-279 145,-70 297,-105 456,-105 189,0 343,44 464,130 120,87 215,202 282,344 68,143 115,295 141,457 27,161 40,317 40,467l0 1419c0,276 -32,527 -98,753 -65,227 -169,408 -311,544 -142,135 -332,202 -568,202 -150,0 -291,-36 -424,-108 -133,-73 -260,-164 -380,-275l0 1694 -985 0zm1419 -1999c106,0 185,-35 236,-105 50,-70 84,-164 101,-282 17,-118 25,-247 25,-387l0 -1500c0,-130 -9,-247 -29,-351 -19,-104 -55,-187 -108,-250 -53,-62 -131,-94 -232,-94 -77,0 -153,18 -228,54 -75,37 -141,79 -199,127l0 2644c62,43 130,78 202,105 73,26 150,39 232,39zm2723 688c-188,0 -351,-49 -489,-148 -137,-99 -242,-225 -315,-377 -72,-152 -108,-310 -108,-474 0,-261 48,-480 145,-659 96,-179 225,-328 387,-449 162,-121 343,-226 543,-315 201,-89 407,-170 619,-243l0 -362c0,-120 -8,-222 -25,-304 -17,-82 -49,-145 -98,-188 -48,-44 -118,-65 -210,-65 -87,0 -155,19 -206,57 -51,39 -87,93 -109,163 -21,70 -32,151 -32,243l-15 254 -941 -37c19,-482 140,-839 362,-1068 222,-229 562,-344 1021,-344 420,0 727,116 920,348 193,231 289,545 289,941l0 1934c0,154 4,294 11,420 7,125 17,239 29,340 12,102 23,191 33,268l-891 0c-14,-96 -31,-206 -51,-329 -19,-123 -33,-214 -43,-272 -48,169 -140,322 -275,460 -136,138 -319,206 -551,206zm362 -731c63,0 121,-16 174,-47 53,-31 102,-69 145,-112 43,-44 77,-82 101,-116l0 -1166c-111,63 -213,125 -307,188 -95,63 -175,132 -243,206 -68,75 -121,156 -159,243 -39,87 -58,188 -58,304 0,155 30,277 90,366 61,89 146,134 257,134zm2115 666l0 -4186 985 0 0 645c145,-246 290,-424 435,-532 144,-109 304,-163 478,-163 29,0 54,1 76,3 21,3 47,6 76,11l0 1021c-58,-24 -122,-44 -192,-61 -70,-17 -142,-26 -214,-26 -130,0 -249,32 -355,94 -106,63 -207,167 -304,312l0 2882 -985 0z"/>
  <path class="fil2" d="M13014 6476l1816 0c878,0 1534,-690 1534,-1533l0 -3409c0,-844 -652,-1534 -1534,-1534l-13296 0c-887,0 -1534,690 -1534,1534l0 5769c0,844 660,1534 1534,1534l-22 0 4882 0 0 -985 -4882 0c-290,0 -527,-237 -527,-527l0 -5813c0,-290 237,-527 527,-527l13339 0c290,0 528,237 528,527l0 3452c0,290 -238,527 -528,527l-1837 0 0 985z"/>
 </g>
</svg>
